<svg xmlns="http://www.w3.org/2000/svg" width="1400" height="900" viewBox="0 0 1400 900">
<rect width="1400" height="900" fill="white"/>
<rect x="42" y="42" width="1316" height="816" rx="38" fill="#f4f7f4" stroke="#e3e9e3" stroke-width="3"/>
<text x="72" y="125" font-size="28" font-weight="700" fill="#36b44a" font-family="Arial, sans-serif">PLANTLOGIC · TECHNICAL VISUAL</text>
<text x="72" y="190" font-size="46" font-weight="700" fill="#1f2933" font-family="Arial, sans-serif">8 л Pot for Vegetables</text>
<text x="72" y="240" font-size="26" fill="#667085" font-family="Arial, sans-serif">Артикул виробника 1305008</text>
<text x="72" y="315" font-size="28" fill="#1f2933" font-family="Arial, sans-serif"><tspan fill="#36b44a">●</tspan><tspan dx="14">498 × 206 × 124 мм</tspan></text><text x="72" y="367" font-size="28" fill="#1f2933" font-family="Arial, sans-serif"><tspan fill="#36b44a">●</tspan><tspan dx="14">Внутрішня ширина 178 мм</tspan></text><text x="72" y="419" font-size="28" fill="#1f2933" font-family="Arial, sans-serif"><tspan fill="#36b44a">●</tspan><tspan dx="14">Основа 115 мм</tspan></text>
<rect x="760" y="270" width="410" height="230" rx="24" fill="none" stroke="#1f2933" stroke-width="12"/><g fill="#36b44a"><circle cx="790" cy="300" r="7"/><circle cx="833" cy="300" r="7"/><circle cx="876" cy="300" r="7"/><circle cx="919" cy="300" r="7"/><circle cx="962" cy="300" r="7"/><circle cx="1005" cy="300" r="7"/><circle cx="1048" cy="300" r="7"/><circle cx="1091" cy="300" r="7"/><circle cx="1134" cy="300" r="7"/><circle cx="790" cy="327" r="7"/><circle cx="833" cy="327" r="7"/><circle cx="876" cy="327" r="7"/><circle cx="919" cy="327" r="7"/><circle cx="962" cy="327" r="7"/><circle cx="1005" cy="327" r="7"/><circle cx="1048" cy="327" r="7"/><circle cx="1091" cy="327" r="7"/><circle cx="1134" cy="327" r="7"/><circle cx="790" cy="354" r="7"/><circle cx="833" cy="354" r="7"/><circle cx="876" cy="354" r="7"/><circle cx="919" cy="354" r="7"/><circle cx="962" cy="354" r="7"/><circle cx="1005" cy="354" r="7"/><circle cx="1048" cy="354" r="7"/><circle cx="1091" cy="354" r="7"/><circle cx="1134" cy="354" r="7"/><circle cx="790" cy="381" r="7"/><circle cx="833" cy="381" r="7"/><circle cx="876" cy="381" r="7"/><circle cx="919" cy="381" r="7"/><circle cx="962" cy="381" r="7"/><circle cx="1005" cy="381" r="7"/><circle cx="1048" cy="381" r="7"/><circle cx="1091" cy="381" r="7"/><circle cx="1134" cy="381" r="7"/><circle cx="790" cy="408" r="7"/><circle cx="833" cy="408" r="7"/><circle cx="876" cy="408" r="7"/><circle cx="919" cy="408" r="7"/><circle cx="962" cy="408" r="7"/><circle cx="1005" cy="408" r="7"/><circle cx="1048" cy="408" r="7"/><circle cx="1091" cy="408" r="7"/><circle cx="1134" cy="408" r="7"/><circle cx="790" cy="435" r="7"/><circle cx="833" cy="435" r="7"/><circle cx="876" cy="435" r="7"/><circle cx="919" cy="435" r="7"/><circle cx="962" cy="435" r="7"/><circle cx="1005" cy="435" r="7"/><circle cx="1048" cy="435" r="7"/><circle cx="1091" cy="435" r="7"/><circle cx="1134" cy="435" r="7"/><circle cx="790" cy="462" r="7"/><circle cx="833" cy="462" r="7"/><circle cx="876" cy="462" r="7"/><circle cx="919" cy="462" r="7"/><circle cx="962" cy="462" r="7"/><circle cx="1005" cy="462" r="7"/><circle cx="1048" cy="462" r="7"/><circle cx="1091" cy="462" r="7"/><circle cx="1134" cy="462" r="7"/><circle cx="790" cy="489" r="7"/><circle cx="833" cy="489" r="7"/><circle cx="876" cy="489" r="7"/><circle cx="919" cy="489" r="7"/><circle cx="962" cy="489" r="7"/><circle cx="1005" cy="489" r="7"/><circle cx="1048" cy="489" r="7"/><circle cx="1091" cy="489" r="7"/><circle cx="1134" cy="489" r="7"/></g>
<line x1="745" y1="675" x2="1210" y2="675" stroke="#36b44a" stroke-width="4"/>
<text x="760" y="730" font-size="24" fill="#667085" font-family="Arial, sans-serif">Схема BB610 підготовлена за офіційними даними PlantLogic.</text>
<text x="760" y="770" font-size="22" fill="#667085" font-family="Arial, sans-serif">Не використовується як primary product photo.</text>
</svg>